<svg width="72" height="72" viewBox="0 0 72 72" fill="none" xmlns="http://www.w3.org/2000/svg">
<g clip-path="url(#clip0_5202_8419)">
<path d="M57 6H15C11.67 6 9 8.7 9 12V54C9 57.3 11.7 60 15 60H27L33.87 66.87C35.04 68.04 36.93 68.04 38.1 66.87L45 60H57C60.3 60 63 57.3 63 54V12C63 8.7 60.3 6 57 6ZM36 15.9C40.47 15.9 44.1 19.53 44.1 24C44.1 28.47 40.47 32.1 36 32.1C31.53 32.1 27.9 28.47 27.9 24C27.9 19.53 31.53 15.9 36 15.9ZM54 48H18V45.3C18 39.3 30 36 36 36C42 36 54 39.3 54 45.3V48Z" fill="#499CFF"/>
</g>
<defs>
<clipPath id="clip0_5202_8419">
<rect width="72" height="72" fill="white"/>
</clipPath>
</defs>
</svg>
